<svg xmlns="http://www.w3.org/2000/svg" version="1.1" xmlns:xlink="http://www.w3.org/1999/xlink" xmlns:svgjs="http://svgjs.dev/svgjs" width="2000" height="602" viewBox="0 0 2000 602"><g transform="matrix(1,0,0,1,0.21333333333336668,0.28768141592911434)"><svg viewBox="0 0 375 113" data-background-color="#ffffff" preserveAspectRatio="xMidYMid meet" height="602" width="2000" xmlns="http://www.w3.org/2000/svg" xmlns:xlink="http://www.w3.org/1999/xlink"><g id="tight-bounds" transform="matrix(1,0,0,1,-0.03976000000000113,-0.05375999999998271)"><svg viewBox="0 0 375.07953 113.1077" height="113.1077" width="375.07953"><g><svg></svg></g><g><svg viewBox="0 0 375.07953 113.1077" height="113.1077" width="375.07953"><g transform="matrix(1,0,0,1,-10.22024,-68.86024)"><path d="M10.22 178.34v-109.48h375.08v109.48l-40.9 0 0-2.539h38.361v-104.402h-370.002v104.402l122.862 0 0 2.539z" fill="#ffffff" fill-rule="nonzero" stroke="none" stroke-width="1" stroke-linecap="butt" stroke-linejoin="miter" stroke-miterlimit="10" stroke-dasharray="" stroke-dashoffset="0" font-family="none" font-weight="none" font-size="none" text-anchor="none" style="mix-blend-mode: normal" data-fill-palette-color="tertiary"></path><g><path d="M145.982 179.607v0c-0.525 0-0.993-0.121-1.406-0.363-0.414-0.242-0.74-0.606-0.978-1.091-0.239-0.487-0.359-1.095-0.36-1.824v0c0-0.74 0.12-1.352 0.36-1.838 0.238-0.487 0.564-0.85 0.978-1.09 0.413-0.241 0.882-0.361 1.406-0.361v0c0.525 0 0.994 0.121 1.409 0.363 0.413 0.242 0.739 0.607 0.978 1.094 0.238 0.488 0.357 1.099 0.357 1.832v0c0 0.736-0.119 1.347-0.357 1.834-0.239 0.486-0.566 0.847-0.978 1.085-0.414 0.239-0.884 0.359-1.409 0.359zM145.982 178.881v0c0.596 0 1.066-0.217 1.411-0.652 0.344-0.433 0.517-1.07 0.516-1.91v0c0-0.825-0.172-1.459-0.516-1.905-0.344-0.445-0.814-0.668-1.411-0.668v0c-0.588 0-1.056 0.223-1.404 0.67-0.348 0.448-0.523 1.085-0.522 1.913v0c0 0.837 0.174 1.472 0.522 1.904 0.348 0.432 0.816 0.648 1.404 0.648zM151.043 179.486h-0.787v-4.832h0.787zM151.043 177.307h-0.245c0-0.612 0.059-1.12 0.178-1.525 0.117-0.406 0.289-0.709 0.517-0.908 0.227-0.2 0.504-0.301 0.831-0.301v0c0.108 0 0.206 0.007 0.294 0.023 0.089 0.015 0.179 0.038 0.271 0.068v0l-0.051 0.777c-0.096-0.031-0.198-0.057-0.308-0.079-0.112-0.022-0.21-0.032-0.297-0.032v0c-0.286 0-0.517 0.081-0.692 0.244-0.175 0.163-0.302 0.392-0.381 0.688-0.078 0.296-0.117 0.644-0.117 1.045zM155.445 181.968v0c-0.494 0-0.923-0.07-1.287-0.21-0.363-0.139-0.644-0.325-0.844-0.559-0.2-0.234-0.301-0.492-0.3-0.775v0c0-0.373 0.137-0.658 0.411-0.855 0.273-0.196 0.627-0.295 1.062-0.295v0l0.433 0.273c-0.363 0-0.644 0.076-0.843 0.228-0.198 0.151-0.297 0.357-0.297 0.619v0c0 0.262 0.141 0.484 0.424 0.666 0.282 0.182 0.696 0.272 1.241 0.272v0c0.404 0 0.757-0.058 1.061-0.173 0.305-0.116 0.543-0.267 0.713-0.454 0.169-0.187 0.254-0.388 0.254-0.603v0c0-0.151-0.055-0.281-0.166-0.392-0.112-0.109-0.282-0.163-0.51-0.163v0h-1.877c-0.327 0-0.609-0.05-0.845-0.15-0.237-0.1-0.419-0.23-0.547-0.391-0.128-0.161-0.192-0.338-0.191-0.529v0c0-0.202 0.057-0.373 0.171-0.514 0.114-0.141 0.263-0.249 0.446-0.323 0.183-0.074 0.381-0.111 0.593-0.111v0l0.152 0.293c-0.101 0-0.202 0.023-0.305 0.068-0.104 0.044-0.19 0.112-0.258 0.202-0.069 0.089-0.103 0.2-0.103 0.335v0c0 0.155 0.064 0.284 0.191 0.387 0.128 0.105 0.36 0.157 0.696 0.158v0h1.877c0.455 0 0.812 0.096 1.071 0.286 0.261 0.192 0.391 0.46 0.392 0.803v0c0 0.316-0.112 0.619-0.337 0.91-0.226 0.292-0.549 0.531-0.969 0.716-0.421 0.187-0.924 0.28-1.509 0.281zM155.586 178.074v0c-0.37 0-0.703-0.074-1-0.222-0.299-0.148-0.534-0.355-0.707-0.621-0.174-0.265-0.26-0.572-0.26-0.922v0c0-0.354 0.087-0.663 0.26-0.929 0.172-0.266 0.408-0.472 0.707-0.617 0.297-0.147 0.631-0.22 1-0.22v0c0.359 0 0.686 0.073 0.981 0.22 0.295 0.145 0.529 0.351 0.704 0.617 0.175 0.265 0.262 0.574 0.262 0.929v0c0 0.35-0.087 0.657-0.262 0.922-0.175 0.266-0.41 0.473-0.704 0.621-0.295 0.148-0.621 0.222-0.981 0.222zM155.586 177.509v0c0.37 0 0.658-0.114 0.864-0.343 0.204-0.229 0.307-0.514 0.306-0.857v0c0-0.354-0.102-0.64-0.306-0.86-0.206-0.221-0.494-0.331-0.864-0.331v0c-0.367 0-0.656 0.11-0.865 0.331-0.21 0.219-0.315 0.506-0.315 0.86v0c0 0.343 0.105 0.629 0.315 0.857 0.21 0.229 0.498 0.343 0.865 0.343zM157.17 175.31v0l-0.373-0.152c0-0.282 0.056-0.531 0.167-0.744 0.11-0.214 0.268-0.38 0.472-0.498 0.206-0.12 0.45-0.18 0.733-0.18v0l-0.061 0.777c-0.303 0-0.535 0.065-0.696 0.194-0.161 0.129-0.242 0.33-0.242 0.603zM163.108 179.486h-0.686l-0.101-1.059v-2.068c0-0.434-0.093-0.747-0.278-0.936-0.184-0.19-0.461-0.284-0.832-0.285v0c-0.208 0-0.398 0.03-0.569 0.091-0.169 0.061-0.304 0.154-0.403 0.281-0.098 0.125-0.147 0.287-0.147 0.486v0h-0.878c0-0.35 0.085-0.632 0.256-0.846 0.172-0.214 0.408-0.369 0.708-0.464 0.301-0.096 0.646-0.143 1.033-0.143v0c0.37 0 0.697 0.062 0.983 0.186 0.286 0.125 0.51 0.323 0.672 0.593 0.161 0.27 0.242 0.623 0.242 1.057v0zM160.778 179.607v0c-0.397 0-0.725-0.071-0.985-0.212-0.258-0.141-0.451-0.325-0.579-0.55-0.128-0.225-0.192-0.461-0.192-0.711v0c0-0.327 0.081-0.593 0.244-0.796 0.163-0.206 0.385-0.356 0.668-0.452 0.282-0.096 0.601-0.143 0.955-0.144v0c0.252 0 0.504 0.025 0.758 0.075 0.254 0.051 0.502 0.12 0.745 0.208v0 0.494c-0.202-0.081-0.43-0.145-0.684-0.192-0.254-0.047-0.487-0.071-0.698-0.07v0c-0.323 0-0.595 0.067-0.818 0.2-0.222 0.132-0.333 0.358-0.332 0.677v0c0 0.235 0.085 0.437 0.254 0.606 0.169 0.168 0.441 0.252 0.815 0.252v0c0.262 0 0.498-0.061 0.708-0.184 0.21-0.124 0.376-0.278 0.498-0.462 0.124-0.186 0.186-0.371 0.186-0.555v0h0.192c0 0.323-0.07 0.622-0.21 0.898-0.14 0.276-0.339 0.498-0.597 0.666-0.26 0.168-0.569 0.252-0.928 0.252zM169.195 179.486h-0.777v-2.834c0-0.461-0.11-0.812-0.331-1.052-0.219-0.241-0.519-0.361-0.899-0.361v0c-0.289 0-0.539 0.079-0.751 0.236-0.213 0.159-0.376 0.385-0.49 0.68-0.114 0.293-0.172 0.644-0.172 1.051v0h-0.302c0-0.562 0.074-1.042 0.222-1.438 0.148-0.397 0.364-0.7 0.647-0.91 0.285-0.21 0.631-0.315 1.037-0.315v0c0.381 0 0.706 0.085 0.977 0.254 0.27 0.169 0.478 0.412 0.623 0.729 0.144 0.316 0.216 0.691 0.216 1.126v0zM165.775 179.486h-0.787v-4.822h0.676l0.111 1.11zM171.521 173.524v0c-0.161 0-0.289-0.046-0.383-0.139-0.094-0.093-0.141-0.215-0.141-0.365v0c0-0.148 0.047-0.266 0.141-0.353 0.094-0.087 0.222-0.131 0.383-0.131v0c0.161 0 0.289 0.044 0.384 0.131 0.094 0.087 0.141 0.205 0.141 0.353v0c0 0.151-0.047 0.272-0.141 0.365-0.094 0.093-0.222 0.139-0.384 0.139zM171.915 179.486h-0.787v-4.832h0.787zM177.332 179.486h-3.732v-0.635l2.844-3.551h-2.844v-0.636h3.732v0.636l-2.804 3.551h2.804zM180.544 179.607v0c-0.417 0-0.79-0.107-1.118-0.32-0.327-0.214-0.586-0.51-0.776-0.89-0.19-0.379-0.284-0.816-0.285-1.312v0c0-0.529 0.094-0.983 0.283-1.362 0.188-0.381 0.447-0.673 0.774-0.875 0.328-0.203 0.702-0.305 1.122-0.305v0c0.367 0 0.68 0.074 0.938 0.222 0.26 0.148 0.468 0.348 0.626 0.599 0.159 0.253 0.269 0.538 0.331 0.856 0.062 0.317 0.079 0.646 0.052 0.986v0h-3.49v-0.484h2.972l-0.232 0.151c0.009-0.199-0.002-0.397-0.035-0.595-0.031-0.199-0.09-0.381-0.177-0.547-0.087-0.167-0.21-0.301-0.369-0.401-0.157-0.101-0.359-0.151-0.606-0.151v0c-0.309 0-0.568 0.079-0.776 0.236-0.208 0.159-0.365 0.367-0.469 0.623-0.105 0.257-0.157 0.535-0.157 0.835v0 0.323c0 0.336 0.051 0.637 0.153 0.902 0.104 0.266 0.258 0.477 0.462 0.632 0.206 0.155 0.465 0.232 0.777 0.232v0c0.313 0 0.571-0.076 0.773-0.228 0.202-0.151 0.324-0.374 0.367-0.67v0h0.817c-0.05 0.32-0.164 0.595-0.343 0.825-0.178 0.23-0.404 0.407-0.68 0.531-0.276 0.125-0.587 0.188-0.934 0.187zM183.335 179.016v0c0-0.157 0.055-0.293 0.165-0.407 0.112-0.114 0.252-0.172 0.42-0.172v0c0.168 0 0.311 0.057 0.427 0.172 0.118 0.114 0.178 0.25 0.178 0.407v0c0 0.159-0.059 0.292-0.178 0.4-0.117 0.108-0.26 0.161-0.427 0.161v0c-0.168 0-0.308-0.054-0.42-0.163-0.11-0.11-0.165-0.243-0.165-0.398zM192.141 179.486h-3.904v-6.335h3.904v0.676h-3.117v2.128h2.936v0.676h-2.936v2.169h3.117zM194.119 179.486h-0.959l1.826-2.411-1.826-2.421h0.959l1.382 1.826 1.331-1.826h0.959l-1.836 2.421 1.826 2.411h-0.959l-1.382-1.836zM201.265 179.607v0c-0.352 0-0.659-0.081-0.92-0.242-0.261-0.161-0.462-0.397-0.603-0.708-0.141-0.312-0.212-0.691-0.212-1.138v0h0.333c0 0.299 0.063 0.551 0.188 0.757 0.124 0.204 0.286 0.36 0.486 0.466 0.2 0.106 0.413 0.159 0.637 0.159v0c0.242 0 0.474-0.07 0.696-0.21 0.222-0.14 0.404-0.346 0.545-0.617 0.141-0.273 0.212-0.609 0.212-1.009v0c0-0.383-0.065-0.712-0.194-0.984-0.129-0.272-0.303-0.48-0.522-0.626-0.218-0.144-0.46-0.216-0.727-0.216v0c-0.229 0-0.444 0.055-0.645 0.166-0.202 0.112-0.365 0.274-0.488 0.488-0.125 0.213-0.188 0.475-0.188 0.789v0h-0.333c0-0.468 0.077-0.861 0.232-1.179 0.155-0.317 0.365-0.557 0.632-0.718 0.265-0.161 0.562-0.242 0.891-0.242v0c0.377 0 0.728 0.101 1.056 0.303 0.326 0.202 0.589 0.491 0.79 0.867 0.202 0.377 0.303 0.827 0.303 1.352v0c0 0.531-0.102 0.987-0.305 1.366-0.203 0.381-0.469 0.672-0.799 0.874-0.33 0.202-0.685 0.303-1.065 0.302zM199.863 181.857h-0.787v-7.193h0.656l0.131 1.13zM205.76 179.486h-0.786v-6.88h0.786zM209.543 179.607v0c-0.434 0-0.821-0.096-1.158-0.288-0.338-0.191-0.604-0.475-0.799-0.852-0.195-0.377-0.293-0.841-0.292-1.392v0c0-0.554 0.098-1.019 0.292-1.394 0.195-0.375 0.461-0.659 0.799-0.851 0.338-0.191 0.724-0.286 1.158-0.287v0c0.43 0 0.814 0.096 1.152 0.287 0.338 0.192 0.603 0.476 0.797 0.851 0.194 0.375 0.291 0.84 0.291 1.394v0c0 0.551-0.097 1.016-0.291 1.392-0.194 0.377-0.459 0.66-0.797 0.852-0.338 0.192-0.722 0.289-1.152 0.288zM209.523 178.921v0c0.312 0 0.578-0.075 0.797-0.224 0.218-0.151 0.383-0.364 0.497-0.639 0.113-0.276 0.169-0.603 0.169-0.983v0c0-0.576-0.12-1.029-0.359-1.36-0.238-0.331-0.593-0.496-1.063-0.496v0c-0.316 0-0.583 0.075-0.801 0.224-0.217 0.149-0.381 0.363-0.495 0.642-0.112 0.277-0.167 0.607-0.167 0.99v0c0 0.568 0.12 1.018 0.359 1.35 0.241 0.331 0.595 0.496 1.063 0.496zM214.097 179.486h-0.787v-4.832h0.787zM214.097 177.307h-0.242c0-0.612 0.059-1.12 0.178-1.525 0.117-0.406 0.289-0.709 0.516-0.908 0.227-0.2 0.504-0.301 0.829-0.301v0c0.108 0 0.206 0.007 0.295 0.023 0.09 0.015 0.18 0.038 0.27 0.068v0l-0.05 0.777c-0.094-0.031-0.196-0.057-0.307-0.079-0.112-0.022-0.211-0.032-0.298-0.032v0c-0.285 0-0.515 0.081-0.69 0.244-0.175 0.163-0.302 0.392-0.382 0.688-0.079 0.296-0.119 0.644-0.119 1.045zM218.633 179.607v0c-0.417 0-0.79-0.107-1.118-0.32-0.328-0.214-0.587-0.51-0.777-0.89-0.19-0.379-0.284-0.816-0.284-1.312v0c0-0.529 0.094-0.983 0.282-1.362 0.188-0.381 0.446-0.673 0.773-0.875 0.328-0.203 0.703-0.305 1.124-0.305v0c0.366 0 0.679 0.074 0.938 0.222 0.258 0.148 0.467 0.348 0.625 0.599 0.157 0.253 0.267 0.538 0.329 0.856 0.063 0.317 0.081 0.646 0.055 0.986v0h-3.491v-0.484h2.97l-0.232 0.151c0.011-0.199 0-0.397-0.032-0.595-0.032-0.199-0.092-0.381-0.18-0.547-0.087-0.167-0.21-0.301-0.367-0.401-0.159-0.101-0.36-0.151-0.605-0.151v0c-0.309 0-0.568 0.079-0.777 0.236-0.208 0.159-0.365 0.367-0.47 0.623-0.104 0.257-0.155 0.535-0.155 0.835v0 0.323c0 0.336 0.051 0.637 0.153 0.902 0.102 0.266 0.256 0.477 0.462 0.632 0.204 0.155 0.463 0.232 0.777 0.232v0c0.312 0 0.569-0.076 0.77-0.228 0.202-0.151 0.325-0.374 0.37-0.67v0h0.817c-0.051 0.32-0.165 0.595-0.343 0.825-0.179 0.23-0.406 0.407-0.682 0.531-0.276 0.125-0.586 0.188-0.932 0.187zM221.421 179.016v0c0-0.157 0.056-0.293 0.168-0.407 0.11-0.114 0.25-0.172 0.417-0.172v0c0.168 0 0.311 0.057 0.43 0.172 0.117 0.114 0.176 0.25 0.176 0.407v0c0 0.159-0.059 0.292-0.176 0.4-0.118 0.108-0.262 0.161-0.43 0.161v0c-0.168 0-0.307-0.054-0.417-0.163-0.112-0.11-0.167-0.243-0.168-0.398zM226.324 179.486v-6.335h0.938l3.218 5.215h-0.07v-5.215h0.786v6.335h-0.877l-3.329-5.387h0.121v5.387zM234.909 179.607v0c-0.417 0-0.79-0.107-1.118-0.32-0.327-0.214-0.586-0.51-0.777-0.89-0.19-0.379-0.284-0.816-0.284-1.312v0c0-0.529 0.094-0.983 0.282-1.362 0.188-0.381 0.447-0.673 0.775-0.875 0.328-0.203 0.702-0.305 1.122-0.305v0c0.367 0 0.68 0.074 0.938 0.222 0.26 0.148 0.468 0.348 0.626 0.599 0.159 0.253 0.269 0.538 0.33 0.856 0.062 0.317 0.079 0.646 0.053 0.986v0h-3.491v-0.484h2.972l-0.232 0.151c0.009-0.199-0.002-0.397-0.034-0.595-0.031-0.199-0.09-0.381-0.177-0.547-0.087-0.167-0.21-0.301-0.37-0.401-0.157-0.101-0.359-0.151-0.605-0.151v0c-0.309 0-0.568 0.079-0.777 0.236-0.208 0.159-0.365 0.367-0.468 0.623-0.105 0.257-0.157 0.535-0.157 0.835v0 0.323c0 0.336 0.051 0.637 0.153 0.902 0.104 0.266 0.258 0.477 0.462 0.632 0.206 0.155 0.465 0.232 0.777 0.232v0c0.313 0 0.571-0.076 0.773-0.228 0.202-0.151 0.324-0.374 0.367-0.67v0h0.817c-0.05 0.32-0.164 0.595-0.343 0.825-0.178 0.23-0.404 0.407-0.68 0.531-0.276 0.125-0.587 0.188-0.934 0.187zM239.505 179.486l-1.927-4.822h0.898l1.513 4.146h-0.111l1.514-4.146h0.897l-1.926 4.822zM245.158 179.607v0c-0.417 0-0.79-0.107-1.117-0.32-0.327-0.214-0.586-0.51-0.777-0.89-0.19-0.379-0.284-0.816-0.285-1.312v0c0-0.529 0.094-0.983 0.283-1.362 0.188-0.381 0.447-0.673 0.775-0.875 0.328-0.203 0.702-0.305 1.121-0.305v0c0.367 0 0.68 0.074 0.939 0.222 0.26 0.148 0.468 0.348 0.625 0.599 0.159 0.253 0.269 0.538 0.331 0.856 0.062 0.317 0.079 0.646 0.052 0.986v0h-3.49v-0.484h2.972l-0.232 0.151c0.009-0.199-0.002-0.397-0.034-0.595-0.031-0.199-0.09-0.381-0.178-0.547-0.087-0.167-0.21-0.301-0.369-0.401-0.157-0.101-0.359-0.151-0.605-0.151v0c-0.309 0-0.568 0.079-0.777 0.236-0.208 0.159-0.365 0.367-0.468 0.623-0.105 0.257-0.157 0.535-0.158 0.835v0 0.323c0 0.336 0.051 0.637 0.154 0.902 0.104 0.266 0.258 0.477 0.462 0.632 0.206 0.155 0.465 0.232 0.776 0.232v0c0.313 0 0.571-0.076 0.773-0.228 0.202-0.151 0.324-0.374 0.367-0.67v0h0.818c-0.05 0.32-0.164 0.595-0.343 0.825-0.178 0.23-0.404 0.407-0.68 0.531-0.276 0.125-0.587 0.188-0.935 0.187zM249.452 179.486h-0.787v-4.832h0.787zM249.452 177.307h-0.242c0-0.612 0.059-1.12 0.175-1.525 0.118-0.406 0.291-0.709 0.517-0.908 0.227-0.2 0.504-0.301 0.831-0.301v0c0.108 0 0.206 0.007 0.295 0.023 0.089 0.015 0.179 0.038 0.27 0.068v0l-0.05 0.777c-0.094-0.031-0.197-0.057-0.309-0.079-0.11-0.022-0.209-0.032-0.297-0.032v0c-0.286 0-0.517 0.081-0.692 0.244-0.175 0.163-0.302 0.392-0.381 0.688-0.078 0.296-0.117 0.644-0.117 1.045zM254.708 173.151h0.787v5.649h2.824v0.686h-3.611zM261.168 179.607v0c-0.433 0-0.819-0.096-1.158-0.288-0.338-0.191-0.604-0.475-0.799-0.852-0.195-0.377-0.293-0.841-0.292-1.392v0c0-0.554 0.098-1.019 0.292-1.394 0.195-0.375 0.461-0.659 0.799-0.851 0.339-0.191 0.725-0.286 1.158-0.287v0c0.43 0 0.814 0.096 1.152 0.287 0.339 0.192 0.605 0.476 0.797 0.851 0.194 0.375 0.291 0.84 0.291 1.394v0c0 0.551-0.097 1.016-0.291 1.392-0.192 0.377-0.458 0.66-0.797 0.852-0.338 0.192-0.722 0.289-1.152 0.288zM261.148 178.921v0c0.313 0 0.579-0.075 0.797-0.224 0.219-0.151 0.385-0.364 0.496-0.639 0.113-0.276 0.169-0.603 0.17-0.983v0c0-0.576-0.119-1.029-0.357-1.36-0.239-0.331-0.595-0.496-1.066-0.496v0c-0.316 0-0.582 0.075-0.799 0.224-0.217 0.149-0.381 0.363-0.494 0.642-0.113 0.277-0.169 0.607-0.169 0.99v0c0 0.568 0.12 1.018 0.361 1.35 0.241 0.331 0.595 0.496 1.061 0.496zM266.672 179.607v0c-0.468 0-0.858-0.067-1.17-0.199-0.313-0.133-0.551-0.316-0.712-0.549-0.161-0.234-0.247-0.502-0.256-0.805v0h0.756c0.016 0.305 0.139 0.535 0.369 0.688 0.231 0.153 0.545 0.23 0.943 0.23v0c0.208 0 0.4-0.034 0.575-0.101 0.175-0.067 0.314-0.159 0.417-0.277 0.105-0.118 0.157-0.252 0.158-0.399v0c0-0.188-0.069-0.336-0.208-0.444-0.137-0.108-0.357-0.202-0.66-0.282v0l-0.938-0.303c-0.408-0.128-0.72-0.303-0.936-0.527-0.217-0.225-0.325-0.493-0.325-0.805v0c0-0.39 0.172-0.703 0.514-0.938 0.343-0.235 0.794-0.353 1.352-0.353v0c0.592 0 1.051 0.121 1.376 0.363 0.327 0.242 0.497 0.545 0.511 0.908v0h-0.777c-0.031-0.213-0.139-0.373-0.323-0.482-0.186-0.109-0.448-0.163-0.787-0.163v0c-0.327 0-0.582 0.073-0.764 0.219-0.183 0.145-0.274 0.307-0.275 0.487v0c0 0.332 0.286 0.578 0.858 0.736v0l0.958 0.323c0.413 0.124 0.73 0.286 0.95 0.488 0.221 0.203 0.331 0.461 0.331 0.773v0c0 0.242-0.079 0.471-0.238 0.686-0.157 0.215-0.381 0.39-0.67 0.525-0.289 0.135-0.632 0.202-1.029 0.201zM271.912 179.607v0c-0.417 0-0.79-0.107-1.118-0.32-0.327-0.214-0.586-0.51-0.777-0.89-0.19-0.379-0.284-0.816-0.284-1.312v0c0-0.529 0.094-0.983 0.282-1.362 0.188-0.381 0.447-0.673 0.775-0.875 0.328-0.203 0.702-0.305 1.122-0.305v0c0.367 0 0.68 0.074 0.938 0.222 0.26 0.148 0.468 0.348 0.626 0.599 0.159 0.253 0.269 0.538 0.331 0.856 0.062 0.317 0.079 0.646 0.052 0.986v0h-3.49v-0.484h2.972l-0.233 0.151c0.009-0.199-0.002-0.397-0.034-0.595-0.031-0.199-0.09-0.381-0.177-0.547-0.087-0.167-0.21-0.301-0.37-0.401-0.157-0.101-0.359-0.151-0.605-0.151v0c-0.309 0-0.568 0.079-0.777 0.236-0.208 0.159-0.365 0.367-0.468 0.623-0.105 0.257-0.157 0.535-0.157 0.835v0 0.323c0 0.336 0.051 0.637 0.153 0.902 0.104 0.266 0.258 0.477 0.462 0.632 0.206 0.155 0.465 0.232 0.777 0.232v0c0.313 0 0.571-0.076 0.773-0.228 0.202-0.151 0.324-0.374 0.367-0.67v0h0.817c-0.05 0.32-0.164 0.595-0.343 0.825-0.178 0.23-0.404 0.407-0.68 0.531-0.276 0.125-0.587 0.188-0.934 0.187zM281.486 179.486h-0.686l-0.101-1.059v-2.068c0-0.434-0.092-0.747-0.277-0.936-0.186-0.19-0.463-0.284-0.833-0.285v0c-0.208 0-0.397 0.03-0.567 0.091-0.169 0.061-0.304 0.154-0.403 0.281-0.1 0.125-0.149 0.287-0.15 0.486v0h-0.877c0-0.35 0.086-0.632 0.258-0.846 0.171-0.214 0.407-0.369 0.708-0.464 0.301-0.096 0.645-0.143 1.031-0.143v0c0.37 0 0.698 0.062 0.985 0.186 0.285 0.125 0.508 0.323 0.67 0.593 0.161 0.27 0.242 0.623 0.242 1.057v0zM279.155 179.607v0c-0.397 0-0.724-0.071-0.982-0.212-0.26-0.141-0.453-0.325-0.581-0.55-0.128-0.225-0.192-0.461-0.192-0.711v0c0-0.327 0.081-0.593 0.244-0.796 0.164-0.206 0.387-0.356 0.67-0.452 0.282-0.096 0.6-0.143 0.952-0.144v0c0.253 0 0.506 0.025 0.759 0.075 0.254 0.051 0.502 0.12 0.744 0.208v0 0.494c-0.202-0.081-0.43-0.145-0.684-0.192-0.253-0.047-0.486-0.071-0.698-0.07v0c-0.323 0-0.595 0.067-0.817 0.2-0.222 0.132-0.333 0.358-0.333 0.677v0c0 0.235 0.085 0.437 0.254 0.606 0.171 0.168 0.443 0.252 0.816 0.252v0c0.262 0 0.498-0.061 0.708-0.184 0.211-0.124 0.378-0.278 0.5-0.462 0.122-0.186 0.184-0.371 0.184-0.555v0h0.191c0 0.323-0.07 0.622-0.209 0.898-0.139 0.276-0.338 0.498-0.598 0.666-0.258 0.168-0.568 0.252-0.928 0.252zM286.54 179.486h-0.797v-6.335h2.038c0.697 0 1.229 0.176 1.596 0.527 0.369 0.351 0.553 0.828 0.552 1.43v0c0 0.595-0.184 1.066-0.552 1.414-0.367 0.348-0.899 0.523-1.596 0.523v0h-1.241zM286.54 173.827v2.532h1.241c0.441 0 0.775-0.113 1-0.339 0.227-0.225 0.341-0.529 0.341-0.912v0c0-0.39-0.114-0.701-0.341-0.934-0.226-0.231-0.56-0.347-1-0.347v0zM295.02 179.486h-0.686l-0.101-1.059v-2.068c0-0.434-0.093-0.747-0.278-0.936-0.184-0.19-0.461-0.284-0.832-0.285v0c-0.208 0-0.398 0.03-0.569 0.091-0.169 0.061-0.304 0.154-0.403 0.281-0.098 0.125-0.147 0.287-0.148 0.486v0h-0.877c0-0.35 0.085-0.632 0.256-0.846 0.172-0.214 0.408-0.369 0.708-0.464 0.301-0.096 0.646-0.143 1.033-0.143v0c0.37 0 0.697 0.062 0.983 0.186 0.286 0.125 0.51 0.323 0.672 0.593 0.161 0.27 0.242 0.623 0.242 1.057v0zM292.689 179.607v0c-0.397 0-0.725-0.071-0.984-0.212-0.258-0.141-0.451-0.325-0.579-0.55-0.128-0.225-0.192-0.461-0.192-0.711v0c0-0.327 0.081-0.593 0.244-0.796 0.163-0.206 0.385-0.356 0.668-0.452 0.282-0.096 0.601-0.143 0.954-0.144v0c0.252 0 0.504 0.025 0.759 0.075 0.254 0.051 0.502 0.12 0.745 0.208v0 0.494c-0.202-0.081-0.43-0.145-0.684-0.192-0.254-0.047-0.487-0.071-0.699-0.07v0c-0.323 0-0.595 0.067-0.817 0.2-0.222 0.132-0.333 0.358-0.333 0.677v0c0 0.235 0.085 0.437 0.255 0.606 0.169 0.168 0.441 0.252 0.815 0.252v0c0.262 0 0.498-0.061 0.708-0.184 0.21-0.124 0.376-0.278 0.498-0.462 0.124-0.186 0.186-0.371 0.186-0.555v0h0.192c0 0.323-0.07 0.622-0.21 0.898-0.14 0.276-0.339 0.498-0.597 0.666-0.26 0.168-0.569 0.252-0.929 0.252zM298.605 181.968v0c-0.494 0-0.922-0.07-1.285-0.21-0.365-0.139-0.646-0.325-0.845-0.559-0.2-0.234-0.301-0.492-0.301-0.775v0c0-0.373 0.137-0.658 0.411-0.855 0.274-0.196 0.628-0.295 1.062-0.295v0l0.434 0.273c-0.363 0-0.644 0.076-0.842 0.228-0.199 0.151-0.299 0.357-0.298 0.619v0c0 0.262 0.141 0.484 0.423 0.666 0.282 0.182 0.696 0.272 1.241 0.272v0c0.404 0 0.757-0.058 1.061-0.173 0.305-0.116 0.543-0.267 0.713-0.454 0.169-0.187 0.254-0.388 0.254-0.603v0c0-0.151-0.055-0.281-0.166-0.392-0.112-0.109-0.282-0.163-0.51-0.163v0h-1.876c-0.326 0-0.607-0.05-0.846-0.15-0.237-0.1-0.419-0.23-0.547-0.391-0.128-0.161-0.192-0.338-0.191-0.529v0c0-0.202 0.057-0.373 0.171-0.514 0.114-0.141 0.263-0.249 0.446-0.323 0.184-0.074 0.382-0.111 0.593-0.111v0l0.152 0.293c-0.101 0-0.202 0.023-0.305 0.068-0.102 0.044-0.188 0.112-0.258 0.202-0.069 0.089-0.103 0.2-0.103 0.335v0c0 0.155 0.064 0.284 0.191 0.387 0.128 0.105 0.36 0.157 0.697 0.158v0h1.876c0.455 0 0.812 0.096 1.071 0.286 0.261 0.192 0.391 0.46 0.392 0.803v0c0 0.316-0.112 0.619-0.337 0.91-0.226 0.292-0.549 0.531-0.969 0.716-0.421 0.187-0.924 0.28-1.509 0.281zM298.746 178.074v0c-0.37 0-0.703-0.074-1-0.222-0.297-0.148-0.533-0.355-0.707-0.621-0.174-0.265-0.26-0.572-0.26-0.922v0c0-0.354 0.087-0.663 0.26-0.929 0.174-0.266 0.409-0.472 0.707-0.617 0.297-0.147 0.631-0.22 1-0.22v0c0.36 0 0.687 0.073 0.981 0.22 0.295 0.145 0.529 0.351 0.704 0.617 0.175 0.265 0.262 0.574 0.262 0.929v0c0 0.35-0.087 0.657-0.262 0.922-0.175 0.266-0.41 0.473-0.704 0.621-0.293 0.148-0.62 0.222-0.981 0.222zM298.746 177.509v0c0.37 0 0.658-0.114 0.864-0.343 0.204-0.229 0.307-0.514 0.307-0.857v0c0-0.354-0.102-0.64-0.307-0.86-0.206-0.221-0.494-0.331-0.864-0.331v0c-0.366 0-0.654 0.11-0.865 0.331-0.21 0.219-0.315 0.506-0.315 0.86v0c0 0.343 0.105 0.629 0.315 0.857 0.211 0.229 0.5 0.343 0.865 0.343zM300.33 175.31v0l-0.373-0.152c0-0.282 0.056-0.531 0.167-0.744 0.11-0.214 0.268-0.38 0.475-0.498 0.204-0.12 0.448-0.18 0.73-0.18v0l-0.061 0.777c-0.303 0-0.535 0.065-0.696 0.194-0.161 0.129-0.242 0.33-0.242 0.603zM304.271 179.607v0c-0.417 0-0.79-0.107-1.118-0.32-0.328-0.214-0.587-0.51-0.777-0.89-0.19-0.379-0.284-0.816-0.284-1.312v0c0-0.529 0.094-0.983 0.282-1.362 0.188-0.381 0.446-0.673 0.773-0.875 0.328-0.203 0.703-0.305 1.124-0.305v0c0.366 0 0.679 0.074 0.938 0.222 0.258 0.148 0.467 0.348 0.625 0.599 0.157 0.253 0.267 0.538 0.329 0.856 0.063 0.317 0.081 0.646 0.055 0.986v0h-3.491v-0.484h2.97l-0.232 0.151c0.011-0.199 0-0.397-0.032-0.595-0.032-0.199-0.092-0.381-0.18-0.547-0.087-0.167-0.21-0.301-0.367-0.401-0.159-0.101-0.36-0.151-0.605-0.151v0c-0.309 0-0.568 0.079-0.777 0.236-0.208 0.159-0.365 0.367-0.47 0.623-0.104 0.257-0.155 0.535-0.156 0.835v0 0.323c0 0.336 0.051 0.637 0.154 0.902 0.102 0.266 0.256 0.477 0.462 0.632 0.204 0.155 0.463 0.232 0.777 0.232v0c0.312 0 0.569-0.076 0.77-0.228 0.202-0.151 0.325-0.374 0.37-0.67v0h0.817c-0.051 0.32-0.165 0.595-0.343 0.825-0.179 0.23-0.406 0.407-0.682 0.531-0.276 0.125-0.586 0.188-0.932 0.187zM310.241 179.486h-0.827l2.181-6.335h0.958l2.126 6.335h-0.827l-0.534-1.624h-2.522zM312.057 174.109l-1.06 3.138h2.119zM317.672 181.968v0c-0.494 0-0.922-0.07-1.286-0.21-0.365-0.139-0.646-0.325-0.845-0.559-0.2-0.234-0.301-0.492-0.301-0.775v0c0-0.373 0.137-0.658 0.412-0.855 0.274-0.196 0.628-0.295 1.061-0.295v0l0.434 0.273c-0.363 0-0.644 0.076-0.841 0.228-0.199 0.151-0.299 0.357-0.299 0.619v0c0 0.262 0.141 0.484 0.424 0.666 0.282 0.182 0.696 0.272 1.241 0.272v0c0.404 0 0.757-0.058 1.061-0.173 0.305-0.116 0.543-0.267 0.712-0.454 0.169-0.187 0.254-0.388 0.254-0.603v0c0-0.151-0.055-0.281-0.165-0.392-0.112-0.109-0.282-0.163-0.511-0.163v0h-1.876c-0.326 0-0.607-0.05-0.845-0.15-0.237-0.1-0.419-0.23-0.547-0.391-0.128-0.161-0.192-0.338-0.192-0.529v0c0-0.202 0.057-0.373 0.172-0.514 0.114-0.141 0.263-0.249 0.446-0.323 0.184-0.074 0.382-0.111 0.593-0.111v0l0.151 0.293c-0.101 0-0.202 0.023-0.305 0.068-0.102 0.044-0.188 0.112-0.258 0.202-0.069 0.089-0.103 0.2-0.103 0.335v0c0 0.155 0.064 0.284 0.192 0.387 0.128 0.105 0.36 0.157 0.696 0.158v0h1.876c0.455 0 0.812 0.096 1.072 0.286 0.261 0.192 0.391 0.46 0.391 0.803v0c0 0.316-0.112 0.619-0.337 0.91-0.226 0.292-0.549 0.531-0.968 0.716-0.421 0.187-0.924 0.28-1.509 0.281zM317.813 178.074v0c-0.37 0-0.703-0.074-1.001-0.222-0.297-0.148-0.533-0.355-0.706-0.621-0.174-0.265-0.26-0.572-0.26-0.922v0c0-0.354 0.087-0.663 0.26-0.929 0.174-0.266 0.409-0.472 0.706-0.617 0.297-0.147 0.631-0.22 1.001-0.22v0c0.36 0 0.687 0.073 0.98 0.22 0.295 0.145 0.529 0.351 0.705 0.617 0.175 0.265 0.262 0.574 0.262 0.929v0c0 0.35-0.087 0.657-0.262 0.922-0.175 0.266-0.41 0.473-0.705 0.621-0.293 0.148-0.62 0.222-0.98 0.222zM317.813 177.509v0c0.37 0 0.658-0.114 0.863-0.343 0.204-0.229 0.307-0.514 0.307-0.857v0c0-0.354-0.102-0.64-0.307-0.86-0.206-0.221-0.494-0.331-0.863-0.331v0c-0.366 0-0.654 0.11-0.866 0.331-0.21 0.219-0.315 0.506-0.314 0.86v0c0 0.343 0.105 0.629 0.314 0.857 0.211 0.229 0.5 0.343 0.866 0.343zM319.397 175.31v0l-0.374-0.152c0-0.282 0.056-0.531 0.168-0.744 0.11-0.214 0.268-0.38 0.474-0.498 0.204-0.12 0.448-0.18 0.73-0.18v0l-0.06 0.777c-0.303 0-0.535 0.065-0.696 0.194-0.161 0.129-0.242 0.33-0.242 0.603zM325.335 179.486h-0.686l-0.101-1.059v-2.068c0-0.434-0.093-0.747-0.279-0.936-0.184-0.19-0.461-0.284-0.831-0.285v0c-0.208 0-0.398 0.03-0.569 0.091-0.169 0.061-0.304 0.154-0.404 0.281-0.098 0.125-0.147 0.287-0.147 0.486v0h-0.877c0-0.35 0.085-0.632 0.256-0.846 0.172-0.214 0.408-0.369 0.708-0.464 0.301-0.096 0.646-0.143 1.033-0.143v0c0.37 0 0.697 0.062 0.983 0.186 0.286 0.125 0.51 0.323 0.671 0.593 0.161 0.27 0.242 0.623 0.243 1.057v0zM323.004 179.607v0c-0.397 0-0.725-0.071-0.984-0.212-0.258-0.141-0.451-0.325-0.579-0.55-0.128-0.225-0.192-0.461-0.192-0.711v0c0-0.327 0.081-0.593 0.244-0.796 0.163-0.206 0.385-0.356 0.668-0.452 0.282-0.096 0.601-0.143 0.954-0.144v0c0.252 0 0.504 0.025 0.759 0.075 0.254 0.051 0.502 0.12 0.744 0.208v0 0.494c-0.202-0.081-0.43-0.145-0.684-0.192-0.254-0.047-0.487-0.071-0.698-0.07v0c-0.323 0-0.595 0.067-0.817 0.2-0.222 0.132-0.333 0.358-0.333 0.677v0c0 0.235 0.085 0.437 0.254 0.606 0.169 0.168 0.441 0.252 0.815 0.252v0c0.262 0 0.498-0.061 0.709-0.184 0.21-0.124 0.376-0.278 0.498-0.462 0.124-0.186 0.186-0.371 0.186-0.555v0h0.191c0 0.323-0.07 0.622-0.21 0.898-0.14 0.276-0.339 0.498-0.597 0.666-0.26 0.168-0.569 0.252-0.928 0.252zM327.659 173.524v0c-0.161 0-0.289-0.046-0.384-0.139-0.094-0.093-0.141-0.215-0.141-0.365v0c0-0.148 0.047-0.266 0.141-0.353 0.094-0.087 0.222-0.131 0.384-0.131v0c0.161 0 0.289 0.044 0.383 0.131 0.094 0.087 0.141 0.205 0.141 0.353v0c0 0.151-0.047 0.272-0.141 0.365-0.094 0.093-0.222 0.139-0.383 0.139zM328.052 179.486h-0.787v-4.832h0.787zM334.428 179.486h-0.777v-2.834c0-0.461-0.11-0.812-0.331-1.052-0.221-0.241-0.521-0.361-0.9-0.361v0c-0.289 0-0.539 0.079-0.75 0.236-0.213 0.159-0.376 0.385-0.49 0.68-0.114 0.293-0.172 0.644-0.172 1.051v0h-0.303c0-0.562 0.074-1.042 0.222-1.438 0.148-0.397 0.364-0.7 0.648-0.91 0.285-0.21 0.631-0.315 1.037-0.315v0c0.381 0 0.706 0.085 0.977 0.254 0.27 0.169 0.478 0.412 0.623 0.729 0.144 0.316 0.216 0.691 0.216 1.126v0zM331.008 179.486h-0.787v-4.822h0.676l0.111 1.11zM335.592 179.016v0c0-0.157 0.056-0.293 0.168-0.407 0.11-0.114 0.25-0.172 0.417-0.172v0c0.168 0 0.311 0.057 0.43 0.172 0.117 0.114 0.176 0.25 0.176 0.407v0c0 0.159-0.059 0.292-0.176 0.4-0.118 0.108-0.262 0.161-0.43 0.161v0c-0.168 0-0.307-0.054-0.417-0.163-0.112-0.11-0.167-0.243-0.168-0.398z" fill="#ffffff" fill-rule="nonzero" stroke="none" stroke-width="1" stroke-linecap="butt" stroke-linejoin="miter" stroke-miterlimit="10" stroke-dasharray="" stroke-dashoffset="0" font-family="none" font-weight="none" font-size="none" text-anchor="none" style="mix-blend-mode: normal" data-fill-palette-color="secondary"></path></g></g><g transform="matrix(1,0,0,1,29.33176499999999,37.09786913685035)"><svg viewBox="0 0 316.416 38.91196172629929" height="38.91196172629929" width="316.416"><g><svg viewBox="0 0 369.63814092547966 45.457072942811635" height="38.91196172629929" width="316.416"><g transform="matrix(1,0,0,1,0,6.282417461705517)"><svg viewBox="0 0 316.416 32.8922380194006" height="32.8922380194006" width="316.416"><g id="textblocktransform"><svg viewBox="0 0 316.416 32.8922380194006" height="32.8922380194006" width="316.416" id="textblock"><g><svg viewBox="0 0 316.416 32.8922380194006" height="32.8922380194006" width="316.416"><g transform="matrix(1,0,0,1,0,0)"><svg width="316.416" viewBox="3.85 -35.35 345.32 35.9" height="32.8922380194006" data-palette-color="#4d331f"><path d="M16.15 0L16.15 0 3.85 0 3.85-33.7 14-33.7Q19.2-33.7 22.33-31.3 25.45-28.9 25.45-24.85L25.45-24.85Q25.45-21.95 23.83-19.83 22.2-17.7 19.65-17.15L19.65-17.15Q22.45-16.7 24.43-14.63 26.4-12.55 26.4-9L26.4-9Q26.4-4.95 23.73-2.48 21.05 0 16.15 0ZM14-30.25L14-30.25 7.9-30.25 7.9-18.75 13.3-18.75Q17.35-18.75 19.3-20.45 21.25-22.15 21.25-24.85L21.25-24.85Q21.25-27.2 19.43-28.73 17.6-30.25 14-30.25ZM14.8-15.3L14.8-15.3 7.9-15.3 7.9-3.45 15.55-3.45Q18.75-3.45 20.48-4.93 22.2-6.4 22.2-9.25 22.2-12.1 20.28-13.7 18.35-15.3 14.8-15.3ZM54.5-12.6L54.5-12.6Q54.5-6.95 51.3-3.25 48.1 0.45 42.5 0.45L42.5 0.45Q37.05 0.45 33.87-3.23 30.7-6.9 30.7-12.5L30.7-12.5Q30.7-18.15 33.97-21.93 37.25-25.7 42.5-25.7L42.5-25.7Q48.25-25.7 51.37-22 54.5-18.3 54.5-12.6ZM34.8-12.55L34.8-12.55Q34.8-8.6 36.9-5.83 39-3.05 42.5-3.05L42.5-3.05Q46.3-3.05 48.35-5.78 50.4-8.5 50.4-12.55L50.4-12.55Q50.4-16.75 48.45-19.48 46.5-22.2 42.5-22.2L42.5-22.2Q38.9-22.2 36.85-19.4 34.8-16.6 34.8-12.55ZM82.59-12.6L82.59-12.6Q82.59-6.95 79.4-3.25 76.2 0.45 70.59 0.45L70.59 0.45Q65.15 0.45 61.97-3.23 58.8-6.9 58.8-12.5L58.8-12.5Q58.8-18.15 62.07-21.93 65.34-25.7 70.59-25.7L70.59-25.7Q76.34-25.7 79.47-22 82.59-18.3 82.59-12.6ZM62.9-12.55L62.9-12.55Q62.9-8.6 65-5.83 67.09-3.05 70.59-3.05L70.59-3.05Q74.4-3.05 76.45-5.78 78.5-8.5 78.5-12.55L78.5-12.55Q78.5-16.75 76.55-19.48 74.59-22.2 70.59-22.2L70.59-22.2Q67-22.2 64.95-19.4 62.9-16.6 62.9-12.55ZM92.29-35.15L92.29 0 88.39 0 88.39-35.15 92.29-35.15ZM107.44-25.35L97.44-13.3 107.74 0 102.99 0 92.79-13.3 102.74-25.35 107.44-25.35ZM131.89-33.7L131.89-30.15 122.79-30.15 122.79 0 118.74 0 118.74-30.15 109.64-30.15 109.64-33.7 131.89-33.7ZM140.39-13.85L140.39 0 136.44 0 136.49-25.35 140.39-25.35 140.39-20.9Q142.39-25.6 147.29-25.6L147.29-25.6Q148.19-25.6 148.69-25.5L148.69-25.5 148.69-21.6Q147.64-21.95 146.54-21.95L146.54-21.95Q143.89-21.95 142.14-19.5 140.39-17.05 140.39-13.85L140.39-13.85ZM160.54-3.05L160.54-3.05Q163.24-3.05 164.84-4.58 166.44-6.1 166.44-8.45L166.44-8.45 166.44-11.7 162.04-11.7Q158.84-11.7 157.24-10.45 155.64-9.2 155.64-7.3 155.64-5.4 156.89-4.23 158.14-3.05 160.54-3.05ZM166.49 0L166.49-3Q164.54 0.25 159.39 0.25L159.39 0.25Q155.84 0.25 153.66-1.85 151.49-3.95 151.49-7.15L151.49-7.15Q151.49-10.8 154.26-12.83 157.04-14.85 161.84-14.85L161.84-14.85 166.44-14.85 166.44-16.15Q166.44-19.15 165.09-20.68 163.74-22.2 160.54-22.2L160.54-22.2Q156.49-22.2 153.34-20.05L153.34-20.05 153.34-24Q156.19-25.75 160.84-25.75L160.84-25.75Q170.39-25.75 170.39-16.05L170.39-16.05 170.39 0 166.49 0ZM194.83-4.65L194.83-0.9Q192.43 0.55 188.93 0.55L188.93 0.55Q182.93 0.55 179.41-3.28 175.88-7.1 175.88-12.6L175.88-12.6Q175.88-18 179.41-21.9 182.93-25.8 189.03-25.8L189.03-25.8Q192.28-25.8 194.83-24.4L194.83-24.4 194.83-20.65Q192.53-22.2 189.43-22.2L189.43-22.2Q185.13-22.2 182.56-19.43 179.98-16.65 179.98-12.55L179.98-12.55Q180.03-8.45 182.48-5.73 184.93-3 189.43-3L189.43-3Q192.33-3 194.83-4.65L194.83-4.65ZM204.83-35.15L204.83 0 200.93 0 200.93-35.15 204.83-35.15ZM219.98-25.35L209.98-13.3 220.28 0 215.53 0 205.33-13.3 215.28-25.35 219.98-25.35ZM243.43-5L243.43-1.3Q240.48 0.25 236.23 0.25L236.23 0.25Q230.48 0.25 226.95-3.28 223.43-6.8 223.43-12.6L223.43-12.6Q223.43-18.65 226.58-22.15 229.73-25.65 234.68-25.65L234.68-25.65Q239.43-25.65 242.23-22.6 245.03-19.55 245.03-13.95L245.03-13.95Q245.03-12.35 244.78-11L244.78-11 227.48-11Q227.93-7.25 230.33-5.25 232.73-3.25 236.63-3.25L236.63-3.25Q240.88-3.25 243.43-5L243.43-5ZM234.68-22.2L234.68-22.2Q231.83-22.2 229.83-20.15 227.83-18.1 227.48-14.3L227.48-14.3 241.08-14.3 241.08-15.3Q241.08-18.45 239.38-20.33 237.68-22.2 234.68-22.2ZM254.93-13.85L254.93 0 250.98 0 251.03-25.35 254.93-25.35 254.93-20.9Q256.93-25.6 261.83-25.6L261.83-25.6Q262.73-25.6 263.23-25.5L263.23-25.5 263.23-21.6Q262.18-21.95 261.08-21.95L261.08-21.95Q258.43-21.95 256.68-19.5 254.93-17.05 254.93-13.85L254.93-13.85ZM291.97-33.7L291.97 0 287.92 0 287.92-15.25 271.57-15.25 271.57 0 267.52 0 267.52-33.7 271.57-33.7 271.57-18.9 287.92-18.9 287.92-33.7 291.97-33.7ZM319.17-25.35L319.17 0 315.22 0 315.22-4.4Q313.22 0.3 307.27 0.3L307.27 0.3Q303.52 0.3 301.34-1.93 299.17-4.15 299.17-7.9L299.17-7.9 299.17-25.35 303.12-25.35 303.12-8.9Q303.12-6.15 304.52-4.7 305.92-3.25 308.32-3.25L308.32-3.25Q311.47-3.25 313.34-5.45 315.22-7.65 315.22-11.4L315.22-11.4 315.22-25.35 319.17-25.35ZM330.57-3.75L330.57 0 326.62 0 326.62-35.35 330.57-35.35 330.57-21.55Q333.32-25.75 338.27-25.75L338.27-25.75Q343.07-25.75 346.12-22.08 349.17-18.4 349.17-12.45L349.17-12.45Q349.17-7.1 346.29-3.35 343.42 0.4 338.37 0.4L338.37 0.4Q333.27 0.4 330.57-3.75L330.57-3.75ZM330.57-12.85L330.57-12.85Q330.57-7.8 332.74-5.5 334.92-3.2 338.02-3.2L338.02-3.2Q341.07-3.2 343.07-5.75 345.07-8.3 345.07-12.4L345.07-12.4Q345.07-17.1 342.99-19.63 340.92-22.15 337.77-22.15L337.77-22.15Q335.07-22.15 332.82-19.9 330.57-17.65 330.57-12.85Z" opacity="1" transform="matrix(1,0,0,1,0,0)" fill="#ffffff" class="wordmark-text-0" data-fill-palette-color="primary" id="text-0"></path></svg></g></svg></g></svg></g></svg></g><g transform="matrix(1,0,0,1,324.181067982668,0)"><svg viewBox="0 0 45.457072942811635 45.457072942811635" height="45.457072942811635" width="45.457072942811635"><g data-palette-color="#4d331f"><rect width="12.424933271035181" height="45.457072942811635" fill="#ffffff" stroke="transparent" data-fill-palette-color="accent" x="0" fill-opacity="1"></rect><rect width="12.424933271035181" height="45.457072942811635" fill="#ffffff" stroke="transparent" data-fill-palette-color="accent" x="15.152357647603878" fill-opacity="0.75"></rect><rect width="12.424933271035181" height="45.457072942811635" fill="#ffffff" stroke="transparent" data-fill-palette-color="accent" x="30.304715295207757" fill-opacity="0.5"></rect></g></svg></g></svg></g></svg></g></svg></g><defs></defs></svg><rect width="375.07953" height="113.1077" fill="none" stroke="none" visibility="hidden"></rect></g></svg></g></svg>